<svg width="80" height="80" viewBox="0 0 80 80" fill="none" xmlns="http://www.w3.org/2000/svg">
<path d="M0 19.2C0 12.4794 0 9.11905 1.30792 6.55211C2.4584 4.29417 4.29417 2.4584 6.55211 1.30792C9.11905 0 12.4794 0 19.2 0H60.8C67.5206 0 70.8809 0 73.4479 1.30792C75.7058 2.4584 77.5416 4.29417 78.6921 6.55211C80 9.11905 80 12.4794 80 19.2V60.8C80 67.5206 80 70.8809 78.6921 73.4479C77.5416 75.7058 75.7058 77.5416 73.4479 78.6921C70.8809 80 67.5206 80 60.8 80H19.2C12.4794 80 9.11905 80 6.55211 78.6921C4.29417 77.5416 2.4584 75.7058 1.30792 73.4479C0 70.8809 0 67.5206 0 60.8V19.2Z" fill="#212121"/>
<path d="M63.5433 53.5953C61.936 56.3792 59.7483 58.5951 57.0327 60.1916C54.3159 61.7836 51.3598 62.6084 48.2418 62.6448C45.1135 62.679 42.1487 61.8991 39.4263 60.3274C37.6498 59.3017 36.1137 58.0188 34.8353 56.4887C34.1528 55.6792 33.545 54.8002 33.0117 53.8516C32.8835 53.6223 32.761 53.3963 32.6464 53.1632C32.0992 52.0862 31.6692 50.9721 31.3593 49.8225C31.1748 49.153 31.0312 48.4722 30.9333 47.7789C30.913 47.6546 30.8973 47.529 30.8862 47.4023C30.7838 46.6171 30.7389 45.8185 30.7453 45.0107C30.748 44.5812 30.7654 44.1526 30.8007 43.7264C31.0067 41.046 31.8127 38.475 33.1997 36.0726C34.5867 33.6701 36.4086 31.6896 38.627 30.1709C38.8352 30.4542 39.0247 30.75 39.2008 31.0691C39.5809 31.7584 39.8572 32.4615 40.0391 33.1955C40.1973 33.8576 40.2751 34.5393 40.2734 35.2527C40.2701 35.3712 40.2697 35.4913 40.2607 35.6065C40.256 35.794 40.2426 35.9765 40.2172 36.1599C39.4011 36.9428 38.696 37.852 38.0907 38.9003C37.4855 39.9486 37.049 41.0167 36.779 42.115C36.5522 43.0323 36.4428 43.9787 36.4457 44.9627C36.4478 45.457 36.4744 45.9422 36.5311 46.4214C36.5406 46.5511 36.5603 46.6829 36.5772 46.813C36.6738 47.4822 36.8279 48.1381 37.0355 48.7743C37.2792 49.5207 37.5986 50.2487 37.9933 50.9658C38.1577 51.2588 38.3287 51.54 38.5123 51.8129C39.2094 52.8561 40.0493 53.7448 41.0529 54.5028C41.4481 54.8008 41.8641 55.076 42.3097 55.3333C44.184 56.4154 46.1256 56.9229 48.2473 56.886C50.3839 56.8499 52.3286 56.3031 54.1891 55.2185C56.0461 54.1396 57.4928 52.6763 58.6074 50.7456C59.7221 48.8149 60.2673 46.835 60.2702 44.6857C60.2793 42.5322 59.7776 40.5729 58.7434 38.7062C57.7128 36.8532 56.3042 35.4226 54.4299 34.3404C53.9872 34.0849 53.538 33.8605 53.0852 33.6689C53.0796 33.5259 53.0694 33.3841 53.0535 33.2391C52.9976 32.4729 52.8949 31.7147 52.7528 30.9649C52.5143 29.7051 52.1602 28.4795 51.6967 27.2839C53.661 27.626 55.5418 28.3119 57.3183 29.3376C60.0407 30.9093 62.1968 33.0899 63.7313 35.8162C65.2588 38.5347 66.0237 41.5117 65.9994 44.6543C65.9745 47.8043 65.1523 50.8085 63.5467 53.5895L63.5433 53.5953Z" fill="#FF7033"/>
<path d="M46.8047 43.9192C45.4159 46.3245 43.5878 48.3092 41.3587 49.8333C41.139 49.5433 40.9372 49.2288 40.7559 48.899C40.3688 48.2018 40.0873 47.4879 39.9121 46.7423C39.7535 46.0877 39.6739 45.4088 39.6723 44.7013C39.6734 44.5932 39.6728 44.488 39.6767 44.3816C39.6839 44.2032 39.6973 44.0207 39.7148 43.8444C40.5434 43.0532 41.2597 42.1311 41.8734 41.0682C42.487 40.0053 42.9286 38.9285 43.1966 37.8136C43.4242 36.9083 43.5372 35.9757 43.539 35.0099C43.541 34.5218 43.5127 34.0396 43.4629 33.5682C43.447 33.4231 43.4294 33.281 43.4085 33.1446C43.3136 32.4725 43.1595 31.8167 42.9507 31.1758C42.7078 30.4415 42.3948 29.7289 42.0048 29.03C41.8405 28.7371 41.6694 28.4559 41.4858 28.1829C40.7806 27.1274 39.928 26.2274 38.9084 25.464C38.5242 25.1801 38.1225 24.9132 37.6942 24.6659C35.8199 23.5838 33.8783 23.0763 31.7565 23.1132C29.6171 23.1476 27.6592 23.6907 25.781 24.7729C23.917 25.8438 22.4663 27.3009 21.355 29.2258C20.2437 31.1506 19.7026 33.1368 19.71 35.2882C19.7119 37.4558 20.2222 39.42 21.2604 41.293C22.291 43.146 23.6996 44.5766 25.5739 45.6588C26.0052 45.9077 26.44 46.1238 26.8797 46.3117C26.8841 46.4501 26.8959 46.5889 26.9089 46.7323C26.9665 47.4956 27.0676 48.2567 27.2096 49.0065C27.4476 50.2738 27.8013 51.5069 28.275 52.7045C26.3227 52.3616 24.454 51.6749 22.686 50.6541C19.9608 49.0807 17.803 46.903 16.2714 44.1784C14.741 41.4583 13.9789 38.4829 14.0004 35.3387C14.0236 32.1916 14.8475 29.1845 16.4548 26.4006C18.0621 23.6167 20.2498 21.4008 22.9695 19.8105C25.6805 18.2152 28.6366 17.3904 31.7575 17.3557C34.8829 17.3197 37.8494 18.0967 40.5747 19.6701C42.3426 20.6909 43.8717 21.9659 45.1448 23.4852C45.8343 24.3026 46.4503 25.1941 46.9847 26.1471C47.113 26.3765 47.2355 26.6025 47.3512 26.8402C47.8932 27.9063 48.3208 29.0113 48.6311 30.1534C48.8157 30.8229 48.9621 31.5054 49.0646 32.1975C49.0844 32.3292 49.0996 32.4623 49.1177 32.5969C49.2172 33.3805 49.2621 34.1791 49.254 34.9898C49.2502 35.4146 49.2332 35.8358 49.1984 36.2545C48.9931 38.947 48.19 41.5196 46.8013 43.925L46.8047 43.9192Z" fill="#FF7033"/>
</svg>
