<svg width="24" height="24" viewBox="0 0 24 24" fill="none" xmlns="http://www.w3.org/2000/svg">
<path d="M17.4094 17.702C17.5123 17.8006 17.6337 17.8499 17.7739 17.8499C17.9141 17.8543 18.038 17.8051 18.1454 17.702C18.2529 17.5945 18.3043 17.4735 18.2996 17.3391C18.2996 17.2092 18.2482 17.095 18.1454 16.9964L6.98655 6.30471C6.87907 6.20167 6.75291 6.15015 6.60805 6.15015C6.46319 6.15015 6.34169 6.20167 6.24356 6.30471C6.14076 6.39431 6.08936 6.51079 6.08936 6.65416C6.08936 6.79304 6.14076 6.90952 6.24356 7.0036L17.4094 17.702Z" fill="white"/>
<path d="M12.007 17.4006C12.6145 17.4006 13.1986 17.3515 13.7593 17.2534C14.3201 17.1552 14.8528 17.0192 15.3575 16.8452L13.5701 15.1389C13.3364 15.2549 13.0864 15.3441 12.8201 15.4065C12.5584 15.4645 12.2874 15.4935 12.007 15.4935C11.3201 15.4935 10.7009 15.3352 10.1495 15.0184C9.59813 14.6972 9.15654 14.2734 8.82477 13.7471C8.49766 13.2207 8.33178 12.6385 8.3271 12.0006C8.3271 11.7285 8.35748 11.4653 8.41822 11.211C8.48364 10.9567 8.5771 10.7158 8.6986 10.4883L6.36449 8.24668C5.6729 8.66601 5.07477 9.1188 4.57009 9.60505C4.06542 10.0913 3.67757 10.5485 3.40654 10.9768C3.13551 11.405 3 11.7463 3 12.0006C3 12.2147 3.09813 12.4958 3.29439 12.8437C3.49533 13.1872 3.78271 13.5619 4.15654 13.9679C4.53505 14.3738 4.99065 14.7798 5.52336 15.1857C6.05607 15.5872 6.65654 15.9552 7.32477 16.2898C7.99299 16.6244 8.71963 16.892 9.50467 17.0928C10.2944 17.298 11.1285 17.4006 12.007 17.4006ZM17.8248 15.6608C18.4696 15.2504 19.028 14.811 19.5 14.3426C19.9766 13.8697 20.3458 13.4236 20.6075 13.0043C20.8692 12.585 21 12.2504 21 12.0006C21 11.7865 20.9019 11.5076 20.7056 11.1642C20.5093 10.8207 20.2266 10.4459 19.8575 10.04C19.4883 9.62958 19.0374 9.22363 18.5047 8.82215C17.9766 8.4162 17.3762 8.04594 16.7033 7.71137C16.035 7.37679 15.3061 7.10914 14.5164 6.90839C13.7313 6.70319 12.8949 6.60059 12.007 6.60059C11.4416 6.60059 10.8949 6.64297 10.3668 6.72772C9.84346 6.81248 9.34112 6.93293 8.85981 7.08906L10.6332 8.76862C10.8435 8.68832 11.0631 8.62586 11.2921 8.58126C11.521 8.53218 11.7593 8.50765 12.007 8.50765C12.6799 8.50765 13.2944 8.66378 13.8505 8.97605C14.4065 9.28832 14.8505 9.70988 15.1822 10.2407C15.514 10.7671 15.6799 11.3537 15.6799 12.0006C15.6799 12.2326 15.6542 12.4601 15.6028 12.6831C15.5514 12.9017 15.4766 13.1114 15.3785 13.3121L17.8248 15.6608ZM9.87617 11.8801C9.87617 12.2459 9.97196 12.5827 10.1636 12.8905C10.3551 13.1939 10.6121 13.437 10.9346 13.6199C11.257 13.7984 11.6121 13.8876 12 13.8876C12.0421 13.8876 12.0818 13.8876 12.1192 13.8876C12.1612 13.8831 12.2056 13.8787 12.2523 13.8742L9.89019 11.6259C9.89019 11.6705 9.88785 11.7151 9.88318 11.7597C9.8785 11.7998 9.87617 11.84 9.87617 11.8801ZM14.1238 11.8668C14.1238 11.4965 14.028 11.1597 13.8364 10.8563C13.6495 10.553 13.3972 10.3121 13.0794 10.1337C12.7617 9.95523 12.4065 9.86601 12.014 9.86601C11.9766 9.86601 11.9369 9.86601 11.8949 9.86601C11.8575 9.86601 11.8201 9.86824 11.7827 9.87271L14.1098 12.0943C14.1145 12.0586 14.1168 12.0229 14.1168 11.9872C14.1215 11.9471 14.1238 11.9069 14.1238 11.8668Z" fill="white"/>
</svg>
