<svg width="24" height="24" viewBox="0 0 24 24" fill="none" xmlns="http://www.w3.org/2000/svg">
<path d="M12 17C12.9056 17 13.7554 16.9043 14.5495 16.7129C15.3483 16.5256 16.082 16.2771 16.7508 15.9676C17.4195 15.6581 18.0163 15.316 18.541 14.9414C19.0658 14.5667 19.5116 14.192 19.8785 13.8173C20.2454 13.4386 20.524 13.0904 20.7144 12.7728C20.9048 12.451 21 12.1924 21 11.9969C21 11.8015 20.9048 11.5449 20.7144 11.2272C20.524 10.9096 20.2454 10.5634 19.8785 10.1888C19.5116 9.81002 19.0635 9.43331 18.5341 9.05864C18.0093 8.68397 17.4125 8.34189 16.7438 8.03238C16.0751 7.72287 15.3437 7.47445 14.5495 7.28711C13.7554 7.0957 12.9056 7 12 7C11.1084 7 10.2678 7.0957 9.47833 7.28711C8.68885 7.47445 7.95975 7.72287 7.29102 8.03238C6.62229 8.34189 6.02322 8.68397 5.49381 9.05864C4.9644 9.43331 4.51393 9.81002 4.14241 10.1888C3.77554 10.5634 3.49226 10.9096 3.29257 11.2272C3.09752 11.5449 3 11.8015 3 11.9969C3 12.1924 3.09752 12.451 3.29257 12.7728C3.49226 13.0904 3.77554 13.4386 4.14241 13.8173C4.51393 14.192 4.9644 14.5667 5.49381 14.9414C6.02322 15.316 6.62229 15.6581 7.29102 15.9676C7.95975 16.2771 8.68885 16.5256 9.47833 16.7129C10.2678 16.9043 11.1084 17 12 17ZM12.007 15.0819C11.3522 15.0819 10.7577 14.9414 10.2237 14.6604C9.69427 14.3794 9.26935 14.0067 8.94892 13.5425C8.63313 13.0741 8.47291 12.561 8.46827 12.0031C8.46827 11.4288 8.62616 10.9096 8.94195 10.4453C9.26238 9.98106 9.68963 9.6125 10.2237 9.33965C10.7577 9.06272 11.3522 8.92425 12.007 8.92425C12.6571 8.92425 13.2492 9.06272 13.7833 9.33965C14.3173 9.6125 14.7423 9.9831 15.058 10.4514C15.3785 10.9157 15.5387 11.4329 15.5387 12.0031C15.5387 12.4225 15.4458 12.8176 15.2601 13.1881C15.0789 13.5587 14.8259 13.8866 14.5008 14.1717C14.1757 14.4527 13.7995 14.6746 13.3723 14.8375C12.9497 15.0004 12.4946 15.0819 12.007 15.0819ZM12 13.2004C12.3808 13.2004 12.7036 13.0843 12.9683 12.8522C13.2376 12.616 13.3723 12.3329 13.3723 12.0031C13.3723 11.6773 13.2376 11.3963 12.9683 11.16C12.7036 10.9238 12.3808 10.8057 12 10.8057C11.6238 10.8057 11.3011 10.9238 11.0317 11.16C10.767 11.3963 10.6347 11.6773 10.6347 12.0031C10.6347 12.3329 10.767 12.616 11.0317 12.8522C11.3011 13.0843 11.6238 13.2004 12 13.2004Z" fill="white"/>
</svg>
