<svg width="24" height="24" viewBox="0 0 24 24" fill="none" xmlns="http://www.w3.org/2000/svg">
<path d="M21.3165 14.2164C21.7046 14.1774 22 13.8507 22 13.4607V10.3736C22 9.98357 21.7046 9.65694 21.3165 9.61792L19.4825 9.43349C19.3365 8.94265 19.395 8.97782 19.1589 8.53255L20.2833 7.03356C20.5101 6.73119 20.4801 6.30804 20.2128 6.04076L17.9881 3.81618C17.7212 3.54933 17.2989 3.51891 16.9965 3.74475L15.522 4.84614C15.0374 4.57898 15.0259 4.61468 14.4843 4.45625L14.3014 2.68163C14.2615 2.29437 13.9352 2 13.5459 2H10.4546C10.0651 2 9.7387 2.29468 9.69905 2.68217L9.5157 4.47385C8.9948 4.63125 9.00509 4.5883 8.53701 4.84614L7.06249 3.74475C6.76013 3.51891 6.33781 3.54933 6.07095 3.81618L3.83548 6.05153C3.5729 6.3141 3.53868 6.72804 3.75458 7.03017L4.64802 8.28042C4.41088 8.72569 4.47039 8.94265 4.32437 9.43349L2.67726 9.61289C2.29191 9.65486 2 9.98029 2 10.3679V13.4591C2 13.8498 2.29642 14.1768 2.68525 14.215L4.57754 14.4008C4.73598 14.9321 4.69614 14.9331 4.95814 15.4095L3.77984 16.9658C3.55091 17.2682 3.58015 17.6931 3.84835 17.9613L6.06707 20.1799C6.33561 20.4485 6.76122 20.4774 7.0636 20.2476L8.64471 19.0462C9.08069 19.2771 9.03519 19.2155 9.5157 19.3605L9.70297 21.313C9.74034 21.7026 10.0676 22 10.459 22H13.5414C13.9326 22 14.2598 21.7029 14.2974 21.3135L14.4843 19.3781C14.9866 19.231 14.9607 19.2874 15.4143 19.0462L16.9954 20.2476C17.2978 20.4774 17.7234 20.4485 17.992 20.1799L20.2107 17.9613C20.4789 17.6931 20.5081 17.2682 20.2792 16.9658L19.1009 15.4095C19.3639 14.9331 19.3241 14.9321 19.4825 14.4008L21.3165 14.2164ZM15.683 12.4981C15.5867 13.1111 15.3392 13.6744 14.9799 14.1477C14.7676 14.4293 14.5149 14.6789 14.2311 14.8891C13.7258 15.265 13.122 15.5135 12.4645 15.5901C12.3215 15.6077 12.1766 15.616 12.0295 15.616C11.8825 15.616 11.7375 15.6077 11.5946 15.5901C10.9121 15.5104 10.2856 15.2443 9.76886 14.8446C9.50893 14.6437 9.27696 14.4097 9.07917 14.1477C8.71983 13.6744 8.47232 13.1111 8.37602 12.4981C8.34598 12.3086 8.33045 12.1149 8.33045 11.9172C8.33045 11.7701 8.33874 11.6251 8.35634 11.4822C8.43401 10.8133 8.69187 10.1982 9.07917 9.68665C9.27696 9.42467 9.50893 9.19064 9.76886 8.98975C10.2494 8.618 10.8231 8.36222 11.4486 8.26385C11.6381 8.23382 11.8317 8.21829 12.0295 8.21829C12.2273 8.21829 12.421 8.23382 12.6105 8.26385C13.2111 8.35808 13.7631 8.59729 14.2311 8.94522C14.5149 9.15543 14.7676 9.40499 14.9799 9.68665C15.3672 10.1982 15.625 10.8133 15.7027 11.4822C15.7203 11.6251 15.7286 11.7701 15.7286 11.9172C15.7286 12.1149 15.713 12.3086 15.683 12.4981Z" fill="white"/>
</svg>
