<svg width="137" height="31" viewBox="0 0 137 31" fill="none" xmlns="http://www.w3.org/2000/svg">
<path d="M19.019 26.0616H14.7969L9.3625 17.3608L3.0936 26.0616H2V4H5.56754L5.52008 16.5371L13.8951 4.03608H18.5523L11.6268 14.2201L19.019 26.0616Z" fill="#F45E22"/>
<path d="M25.0784 4H21.54V26.0616H36.0377V22.4624H25.0784V4Z" fill="#F45E22"/>
<path d="M100.962 4H81.4221V7.62781H89.3756V26.0616H93.0401V7.62781H100.962V4Z" fill="#F45E22"/>
<path d="M55.6497 26.0616H59.3588L50.3059 4H47.0429L37.9275 26.0616H41.6365L43.5836 20.9972H53.7027L55.6497 26.0616ZM44.9664 17.4002L48.6733 8.07441L52.3176 17.4002H44.9642H44.9664Z" fill="#F45E22"/>
<path d="M78.9738 26.0616H82.6829L73.63 4H70.367L61.2516 26.0616H64.9606L66.9077 20.9972H77.0268L78.9738 26.0616ZM68.2905 17.4002L71.9974 8.07441L75.6417 17.4002H68.2883H68.2905Z" fill="#F45E22"/>
<path d="M135 15.0329C135 17.0147 134.504 18.8722 133.526 20.5618C132.546 22.2493 131.194 23.6009 129.505 24.5815C127.81 25.5641 125.948 26.0616 123.969 26.0616C122.677 26.0616 121.436 25.8502 120.257 25.4273C119.63 25.2055 119.022 24.9235 118.432 24.5815C118.29 24.4985 118.152 24.4156 118.016 24.3265C117.379 23.9202 116.794 23.4579 116.263 22.9396C115.952 22.639 115.659 22.3197 115.387 21.9798C115.337 21.9196 115.289 21.8574 115.243 21.7932C114.94 21.4055 114.664 20.993 114.413 20.5597C114.28 20.3296 114.154 20.0953 114.039 19.8569C113.308 18.3622 112.938 16.7411 112.938 15.0308C112.938 13.3205 113.308 11.7015 114.039 10.2068C114.242 10.2938 114.438 10.3934 114.635 10.5094C115.059 10.7603 115.431 11.0505 115.761 11.3864C116.056 11.6911 116.313 12.0311 116.537 12.4125C116.572 12.4768 116.61 12.5411 116.641 12.6053C116.698 12.7069 116.748 12.8085 116.792 12.9142C116.593 13.5838 116.495 14.2866 116.495 15.0329C116.495 15.7792 116.593 16.484 116.792 17.1536C116.957 17.7134 117.195 18.2524 117.507 18.7769C117.663 19.0401 117.83 19.291 118.012 19.5294C118.058 19.5957 118.111 19.66 118.161 19.7243C118.424 20.0518 118.715 20.3545 119.028 20.6302C119.396 20.9536 119.799 21.2438 120.24 21.505C120.422 21.6107 120.604 21.7082 120.79 21.7973C121.498 22.1394 122.236 22.355 123.022 22.4503C123.331 22.4877 123.645 22.5063 123.969 22.5063C125.331 22.5063 126.55 22.1788 127.695 21.505C128.849 20.8271 129.737 19.9357 130.41 18.7831C131.083 17.6346 131.411 16.4073 131.411 15.0329C131.411 13.6584 131.085 12.4333 130.41 11.2848C129.737 10.1321 128.847 9.24073 127.695 8.56283C126.55 7.89116 125.331 7.56154 123.969 7.56154C123.647 7.56154 123.331 7.5802 123.024 7.61751C122.976 7.54288 122.926 7.47032 122.871 7.39777C122.6 7.00595 122.305 6.6328 121.992 6.27623C121.465 5.67712 120.886 5.1319 120.257 4.63643C121.436 4.21353 122.677 4 123.969 4C125.948 4 127.81 4.49961 129.505 5.48225C131.194 6.46281 132.548 7.81653 133.524 9.50193C134.502 11.1915 135 13.049 135 15.0287V15.0329Z" fill="#F45E22"/>
<path d="M123.023 15.0287C123.023 16.7414 122.662 18.3649 121.947 19.8661C121.742 19.779 121.539 19.6733 121.342 19.553C120.924 19.3001 120.556 19.0056 120.236 18.6614C119.951 18.3608 119.702 18.0228 119.484 17.6455C119.452 17.5874 119.42 17.5314 119.389 17.4734C119.338 17.3759 119.29 17.2743 119.245 17.1748C119.442 16.4968 119.539 15.7835 119.539 15.0267C119.539 14.2699 119.444 13.5587 119.245 12.8806C119.089 12.327 118.863 11.7941 118.569 11.2779C118.421 11.0166 118.258 10.7678 118.088 10.5314C118.035 10.4588 117.982 10.3883 117.929 10.322C117.674 9.9923 117.391 9.68958 117.085 9.41174C116.732 9.0945 116.348 8.81043 115.928 8.55747C115.751 8.45172 115.575 8.35427 115.394 8.26511C114.698 7.91884 113.971 7.70113 113.197 7.60782C112.907 7.57465 112.613 7.55599 112.31 7.55599C110.987 7.55599 109.803 7.88359 108.691 8.55747C107.568 9.23549 106.697 10.1292 106.033 11.2861C105.374 12.4328 105.051 13.6582 105.051 15.0287C105.051 16.3993 105.372 17.6268 106.033 18.7734C106.697 19.9304 107.568 20.822 108.691 21.5021C109.803 22.1739 110.987 22.5036 112.31 22.5036C112.615 22.5036 112.911 22.4849 113.201 22.4497C113.246 22.5222 113.295 22.5927 113.346 22.6653C113.609 23.0551 113.896 23.4304 114.2 23.787C114.714 24.3904 115.278 24.9399 115.895 25.4334C114.756 25.8522 113.557 26.0616 112.308 26.0616C110.384 26.0616 108.575 25.564 106.931 24.5812C105.288 23.6004 103.975 22.2465 103.025 20.5607C102.075 18.8729 101.592 17.013 101.592 15.0308C101.592 13.0486 102.073 11.1908 103.027 9.50297C103.975 7.81517 105.288 6.46327 106.931 5.48253C108.575 4.4997 110.384 4 112.308 4C113.557 4 114.756 4.20942 115.895 4.62826C116.51 4.85219 117.109 5.13833 117.684 5.48253C117.822 5.56546 117.956 5.6484 118.09 5.73963C118.703 6.14189 119.267 6.60012 119.781 7.11434C120.083 7.41499 120.37 7.73431 120.636 8.07228C120.686 8.13656 120.735 8.20291 120.786 8.26926C121.078 8.657 121.346 9.06961 121.59 9.50504C121.718 9.73312 121.837 9.96328 121.947 10.1976C122.662 11.6988 123.023 13.3202 123.023 15.0329V15.0287Z" fill="#F45E22"/>
</svg>
