<svg width="16" height="16" viewBox="0 0 16 16" fill="none" xmlns="http://www.w3.org/2000/svg">
<g clip-path="url(#clip0_1_3305)">
<circle cx="8" cy="8" r="6" fill="white"/>
<path d="M8 16C9.09673 16 10.1267 15.7912 11.0898 15.3737C12.0529 14.9562 12.9019 14.38 13.6367 13.6451C14.3772 12.9102 14.9562 12.0612 15.3737 11.0981C15.7912 10.1294 16 9.09673 16 8C16 6.90884 15.7884 5.8817 15.3653 4.91858C14.9478 3.9499 14.3688 3.09812 13.6284 2.36326C12.8935 1.62283 12.0445 1.04384 11.0814 0.626305C10.1183 0.208768 9.08838 0 7.99165 0C6.90049 0 5.87335 0.208768 4.91023 0.626305C3.94711 1.04384 3.09534 1.62283 2.35491 2.36326C1.62004 3.09812 1.04384 3.9499 0.626305 4.91858C0.208768 5.8817 0 6.90884 0 8C0 9.09673 0.208768 10.1294 0.626305 11.0981C1.04941 12.0612 1.62839 12.9102 2.36326 13.6451C3.09812 14.38 3.94711 14.9562 4.91023 15.3737C5.87335 15.7912 6.90327 16 8 16ZM8 9.46138C7.6103 9.46138 7.41267 9.26096 7.4071 8.86013L7.30689 4.5595C7.30132 4.37022 7.36256 4.21434 7.49061 4.09186C7.61865 3.96381 7.78567 3.89979 7.99165 3.89979C8.19207 3.89979 8.3563 3.96381 8.48434 4.09186C8.61239 4.2199 8.67641 4.37857 8.67641 4.56785L8.56785 8.86013C8.56785 9.26096 8.37857 9.46138 8 9.46138ZM8 12.0501C7.77175 12.0501 7.57411 11.9722 7.4071 11.8163C7.24565 11.6604 7.16493 11.4739 7.16493 11.2568C7.16493 11.0341 7.24565 10.8448 7.4071 10.6889C7.57411 10.5275 7.77175 10.4468 8 10.4468C8.22269 10.4468 8.41475 10.5247 8.5762 10.6806C8.74322 10.8365 8.82672 11.0285 8.82672 11.2568C8.82672 11.4795 8.74322 11.6688 8.5762 11.8246C8.40919 11.9749 8.21712 12.0501 8 12.0501Z" fill="#E24343"/>
</g>
<defs>
<clipPath id="clip0_1_3305">
<rect width="16" height="16" fill="white"/>
</clipPath>
</defs>
</svg>
