<svg width="16" height="16" viewBox="0 0 16 16" fill="none" xmlns="http://www.w3.org/2000/svg">
<g clip-path="url(#clip0_1_4233)">
<circle cx="8" cy="8" r="6" fill="white"/>
<path d="M8 16C9.09673 16 10.1267 15.7912 11.0898 15.3737C12.0529 14.9562 12.9019 14.38 13.6367 13.6451C14.3772 12.9102 14.9562 12.0612 15.3737 11.0981C15.7912 10.1294 16 9.09673 16 8C16 6.90884 15.7884 5.8817 15.3653 4.91858C14.9478 3.9499 14.3688 3.09812 13.6284 2.36326C12.8935 1.62283 12.0445 1.04384 11.0814 0.626305C10.1183 0.208768 9.08838 0 7.99165 0C6.90049 0 5.87335 0.208768 4.91023 0.626305C3.94711 1.04384 3.09534 1.62283 2.35491 2.36326C1.62004 3.09812 1.04384 3.9499 0.626305 4.91858C0.208768 5.8817 0 6.90884 0 8C0 9.09673 0.208768 10.1294 0.626305 11.0981C1.04941 12.0612 1.62839 12.9102 2.36326 13.6451C3.09812 14.38 3.94711 14.9562 4.91023 15.3737C5.87335 15.7912 6.90327 16 8 16ZM7.13152 11.8413C7.00348 11.8413 6.88935 11.8135 6.78914 11.7578C6.68894 11.7022 6.59151 11.6159 6.49687 11.499L4.45094 9.00209C4.33403 8.85734 4.27557 8.70425 4.27557 8.5428C4.27557 8.37578 4.33125 8.2366 4.44259 8.12526C4.55393 8.00835 4.69033 7.9499 4.85177 7.9499C4.95198 7.9499 5.04384 7.97216 5.12735 8.0167C5.21642 8.05567 5.30271 8.13361 5.38622 8.25052L7.09812 10.405L10.572 4.85177C10.7056 4.63466 10.8754 4.5261 11.0814 4.5261C11.2373 4.5261 11.3765 4.5762 11.499 4.67641C11.6214 4.77662 11.6827 4.91023 11.6827 5.07724C11.6827 5.15518 11.6632 5.23591 11.6242 5.31942C11.5908 5.39736 11.5518 5.47251 11.5073 5.54489L7.72443 11.499C7.57411 11.7272 7.37648 11.8413 7.13152 11.8413Z" fill="#0AB663"/>
</g>
<defs>
<clipPath id="clip0_1_4233">
<rect width="16" height="16" fill="white"/>
</clipPath>
</defs>
</svg>
