<svg width="24" height="24" viewBox="0 0 24 24" fill="none" xmlns="http://www.w3.org/2000/svg">
<path d="M7.91711 3.5001C8.33136 3.5001 8.66717 3.16429 8.66717 2.75005C8.66717 2.33581 8.33136 2 7.91711 2L4.00013 2C2.89549 2 2 2.89549 2 4.00014V7.91711C2 8.33136 2.33581 8.66717 2.75005 8.66717C3.16429 8.66717 3.5001 8.33136 3.5001 7.91712V4.25015C3.5001 3.83591 3.83591 3.5001 4.25015 3.5001L7.91711 3.5001Z" fill="white"/>
<path d="M20.4999 7.91711C20.4999 8.33136 20.8357 8.66717 21.2499 8.66717C21.6642 8.66717 22 8.33136 22 7.91711L22 4.00013C22 2.89549 21.1045 2 19.9999 2L16.0829 2C15.6686 2 15.3328 2.33581 15.3328 2.75005C15.3328 3.16429 15.6686 3.5001 16.0829 3.5001L19.7498 3.5001C20.1641 3.5001 20.4999 3.83591 20.4999 4.25015L20.4999 7.91711Z" fill="white"/>
<path d="M16.0829 20.4999C15.6686 20.4999 15.3328 20.8357 15.3328 21.2499C15.3328 21.6642 15.6686 22 16.0829 22L19.9999 22C21.1045 22 22 21.1045 22 19.9999L22 16.0829C22 15.6686 21.6642 15.3328 21.25 15.3328C20.8357 15.3328 20.4999 15.6686 20.4999 16.0829L20.4999 19.7498C20.4999 20.1641 20.1641 20.4999 19.7498 20.4999L16.0829 20.4999Z" fill="white"/>
<path d="M3.5001 16.0829C3.5001 15.6686 3.16429 15.3328 2.75005 15.3328C2.33581 15.3328 2 15.6686 2 16.0829L2 19.9999C2 21.1045 2.89549 22 4.00014 22L7.91711 22C8.33136 22 8.66717 21.6642 8.66717 21.25C8.66717 20.8357 8.33136 20.4999 7.91712 20.4999L4.25015 20.4999C3.83591 20.4999 3.5001 20.1641 3.5001 19.7498L3.5001 16.0829Z" fill="white"/>
<mask id="path-5-inside-1_1_4375" fill="white">
<rect x="5.33337" y="5.33398" width="6.66671" height="6.66671" rx="0.666671"/>
</mask>
<rect x="5.33337" y="5.33398" width="6.66671" height="6.66671" rx="0.666671" stroke="white" stroke-width="2.66668" mask="url(#path-5-inside-1_1_4375)"/>
<mask id="path-6-inside-2_1_4375" fill="white">
<rect x="12" y="12" width="6.66671" height="6.66671" rx="0.666671"/>
</mask>
<rect x="12" y="12" width="6.66671" height="6.66671" rx="0.666671" stroke="white" stroke-width="2.66668" mask="url(#path-6-inside-2_1_4375)"/>
<rect x="5.33337" y="13.332" width="2.66668" height="2.66668" rx="0.666671" fill="white"/>
<rect x="16.0006" y="5.33398" width="2.66668" height="2.66668" rx="0.666671" fill="white"/>
<rect x="13.3346" y="7.99805" width="2.66668" height="2.66668" rx="0.666671" fill="white"/>
<rect x="7.99939" y="16.002" width="2.66668" height="2.66668" rx="0.666671" fill="white"/>
</svg>
