<svg width="16" height="18" viewBox="0 0 16 18" fill="none" xmlns="http://www.w3.org/2000/svg">
<g clip-path="url(#clip0_1_3262)">
<path d="M4.25537 18H11.7445C12.2616 18 12.6646 17.8571 12.9538 17.5712C13.2429 17.2911 13.4013 16.888 13.4291 16.3621L13.9212 4.57932H15.0637C15.2416 4.57932 15.3945 4.51644 15.5224 4.39066C15.6503 4.25917 15.7142 4.09624 15.7142 3.90186C15.7142 3.71891 15.6503 3.56455 15.5224 3.43878C15.3945 3.30729 15.2416 3.24154 15.0637 3.24154H0.927807C0.755451 3.24154 0.605336 3.30729 0.477459 3.43878C0.349583 3.56455 0.285645 3.71891 0.285645 3.90186C0.285645 4.09624 0.349583 4.25917 0.477459 4.39066C0.605336 4.51644 0.755451 4.57932 0.927807 4.57932H2.07035L2.57908 16.3621C2.60132 16.888 2.757 17.2911 3.04611 17.5712C3.34078 17.8571 3.74387 18 4.25537 18ZM5.48132 15.5903C5.33676 15.5903 5.21445 15.5445 5.11437 15.4531C5.01985 15.3616 4.96981 15.2387 4.96425 15.0843L4.73074 6.35445C4.72518 6.20581 4.76966 6.08575 4.86418 5.99428C4.95869 5.89709 5.08657 5.8485 5.24781 5.8485C5.39236 5.8485 5.5119 5.89424 5.60642 5.98571C5.70649 6.07718 5.75931 6.2001 5.76487 6.35445L5.99839 15.0843C6.00395 15.233 5.95947 15.3559 5.86495 15.4531C5.77043 15.5445 5.64256 15.5903 5.48132 15.5903ZM7.99993 15.5903C7.84425 15.5903 7.71638 15.5445 7.6163 15.4531C7.51622 15.3616 7.46619 15.2387 7.46619 15.0843V6.35445C7.46619 6.20581 7.51622 6.08575 7.6163 5.99428C7.71638 5.89709 7.84425 5.8485 7.99993 5.8485C8.15561 5.8485 8.28348 5.89709 8.38356 5.99428C8.48364 6.08575 8.53368 6.20581 8.53368 6.35445V15.0843C8.53368 15.2387 8.48364 15.3616 8.38356 15.4531C8.28348 15.5445 8.15561 15.5903 7.99993 15.5903ZM10.5102 15.5903C10.349 15.5903 10.2211 15.5445 10.1266 15.4531C10.0376 15.3559 9.99313 15.233 9.99313 15.0843L10.235 6.35445C10.2405 6.2001 10.2906 6.07718 10.3851 5.98571C10.4796 5.89424 10.6019 5.8485 10.7521 5.8485C10.9077 5.8485 11.0328 5.89709 11.1273 5.99428C11.2274 6.08575 11.2747 6.20581 11.2691 6.35445L11.0273 15.0929C11.0273 15.2415 10.9772 15.3616 10.8772 15.4531C10.7826 15.5445 10.6603 15.5903 10.5102 15.5903ZM4.38881 3.51596H5.92333V2.09242C5.92333 1.89805 5.98171 1.74369 6.09846 1.62935C6.22078 1.51501 6.3848 1.45784 6.59051 1.45784H9.39267C9.59839 1.45784 9.7624 1.51501 9.88472 1.62935C10.007 1.74369 10.0682 1.89805 10.0682 2.09242V3.51596H11.5944V2.02382C11.5944 1.39495 11.4081 0.900429 11.0356 0.540257C10.6631 0.180086 10.146 0 9.48441 0H6.49043C5.83993 0 5.32564 0.180086 4.94758 0.540257C4.57507 0.900429 4.38881 1.39495 4.38881 2.02382V3.51596Z" fill="#AAAAAA"/>
</g>
<defs>
<clipPath id="clip0_1_3262">
<rect width="16" height="18" fill="white"/>
</clipPath>
</defs>
</svg>
