<svg width="216" height="40" viewBox="0 0 216 40" fill="none" xmlns="http://www.w3.org/2000/svg">
<g clip-path="url(#clip0_1_3420)">
<path d="M216.182 20.1803C216.182 23.6001 215.345 26.8053 213.692 29.7207C212.036 32.6325 209.751 34.9648 206.898 36.6568C204.034 38.3524 200.888 39.2109 197.544 39.2109C195.361 39.2109 193.264 38.846 191.272 38.1163C190.213 37.7335 189.185 37.247 188.189 36.6568C187.949 36.5137 187.716 36.3706 187.486 36.2168C186.409 35.5157 185.421 34.718 184.524 33.8237C183.997 33.305 183.503 32.7541 183.044 32.1674C182.959 32.0637 182.878 31.9564 182.8 31.8455C182.288 31.1766 181.822 30.4647 181.398 29.7171C181.172 29.32 180.96 28.9158 180.766 28.5044C179.53 25.9253 178.905 23.1279 178.905 20.1767C178.905 17.2256 179.53 14.4318 180.766 11.8526C181.109 12.0029 181.441 12.1746 181.773 12.3749C182.49 12.8078 183.118 13.3086 183.676 13.8881C184.174 14.4139 184.608 15.0006 184.986 15.6588C185.046 15.7697 185.11 15.8806 185.163 15.9914C185.258 16.1667 185.343 16.342 185.417 16.5244C185.082 17.6799 184.916 18.8925 184.916 20.1803C184.916 21.4681 185.082 22.6843 185.417 23.8398C185.696 24.8056 186.099 25.7357 186.625 26.6407C186.89 27.095 187.172 27.5278 187.479 27.9392C187.557 28.0537 187.645 28.1646 187.73 28.2755C188.175 28.8407 188.666 29.3629 189.196 29.8387C189.817 30.3967 190.499 30.8975 191.244 31.3483C191.551 31.5307 191.858 31.6988 192.172 31.8526C193.37 32.4429 194.616 32.8149 195.944 32.9795C196.466 33.0438 196.996 33.076 197.544 33.076C199.846 33.076 201.905 32.5108 203.84 31.3483C205.789 30.1785 207.29 28.6403 208.427 26.6514C209.564 24.6697 210.119 22.552 210.119 20.1803C210.119 17.8086 209.568 15.6945 208.427 13.7128C207.29 11.7239 205.786 10.1857 203.84 9.01595C201.905 7.85694 199.846 7.28817 197.544 7.28817C197 7.28817 196.467 7.32036 195.947 7.38475C195.866 7.25598 195.781 7.13077 195.69 7.00557C195.231 6.32949 194.733 5.68559 194.203 5.07032C193.313 4.03651 192.335 3.09572 191.272 2.24077C193.264 1.51103 195.361 1.14258 197.544 1.14258C200.888 1.14258 204.034 2.00468 206.898 3.70026C209.751 5.39227 212.04 7.72816 213.689 10.6364C215.341 13.5518 216.182 16.757 216.182 20.1732V20.1803Z" fill="#F45E22"/>
<path d="M195.614 20.1696C195.614 23.1243 194.985 25.9253 193.742 28.5151C193.385 28.3649 193.032 28.1825 192.69 27.975C191.962 27.5386 191.323 27.0306 190.765 26.4368C190.271 25.9181 189.836 25.335 189.459 24.684C189.402 24.5838 189.345 24.4872 189.293 24.3871C189.204 24.219 189.12 24.0437 189.042 23.872C189.384 22.7022 189.554 21.4717 189.554 20.166C189.554 18.8603 189.388 17.6334 189.042 16.4636C188.77 15.5085 188.378 14.5892 187.866 13.6985C187.608 13.2477 187.326 12.8185 187.029 12.4107C186.937 12.2855 186.845 12.1639 186.754 12.0494C186.309 11.4806 185.818 10.9584 185.284 10.479C184.67 9.9317 184.003 9.44163 183.272 9.00521C182.964 8.82278 182.657 8.65465 182.343 8.50083C181.132 7.90344 179.867 7.52784 178.522 7.36687C178.017 7.30963 177.505 7.27744 176.979 7.27744C174.676 7.27744 172.618 7.84263 170.683 9.00521C168.73 10.175 167.215 11.7167 166.06 13.7128C164.912 15.691 164.351 17.8051 164.351 20.1696C164.351 22.5341 164.909 24.6518 166.06 26.63C167.215 28.626 168.73 30.1642 170.683 31.3375C172.618 32.4965 174.676 33.0653 176.979 33.0653C177.509 33.0653 178.024 33.0331 178.529 32.9723C178.607 33.0975 178.692 33.2191 178.78 33.3443C179.239 34.0168 179.737 34.6643 180.266 35.2796C181.16 36.3205 182.142 37.2685 183.215 38.1199C181.234 38.8425 179.147 39.2037 176.975 39.2037C173.628 39.2037 170.481 38.3452 167.621 36.6496C164.764 34.9576 162.479 32.6217 160.827 29.7135C159.174 26.8017 158.333 23.5929 158.333 20.1732C158.333 16.7534 159.17 13.5482 160.83 10.6364C162.479 7.72459 164.764 5.39226 167.621 3.70026C170.481 2.00468 173.628 1.14258 176.975 1.14258C179.147 1.14258 181.234 1.50387 183.215 2.22646C184.285 2.6128 185.327 3.10645 186.326 3.70026C186.566 3.84335 186.799 3.98643 187.032 4.14383C188.099 4.8378 189.081 5.62836 189.974 6.5155C190.5 7.03419 190.998 7.58508 191.461 8.16816C191.549 8.27905 191.634 8.39352 191.722 8.50799C192.231 9.17692 192.697 9.88878 193.12 10.64C193.343 11.0335 193.551 11.4305 193.742 11.8348C194.985 14.4246 195.614 17.222 195.614 20.1767V20.1696Z" fill="#F45E22"/>
<path d="M40.2094 33.2785V0H34.1709V33.2785V39.3955H58.1803V33.2785H40.2094Z" fill="#F45E22"/>
<path d="M155.996 1.16016H129.108V7.32721H139.533V39.3966H145.621V7.32721H155.996V1.16016Z" fill="#F45E22"/>
<path d="M78.8259 1.16016H77.0744L61.6885 39.3966H68.292L71.5797 30.6218H84.2218L87.5094 39.3966H94.113L78.8259 1.16016ZM73.9104 24.3868L77.9325 13.1151L81.8841 24.3868H73.9104Z" fill="#F45E22"/>
<path d="M113.842 1.16016H112.091L96.7046 39.3966H103.308L106.596 30.6218H119.238L122.526 39.3966H129.129L113.842 1.16016ZM108.926 24.3868L112.949 13.1151L116.9 24.3868H108.926Z" fill="#F45E22"/>
<path d="M30.2088 39.374H22.6695L12.9654 23.8455L1.77118 39.374H-0.181641V0H6.18885L6.1041 22.3752L21.0592 0.0643892H29.3755L17.0088 18.24L30.2088 39.374Z" fill="#F45E22"/>
</g>
<defs>
<clipPath id="clip0_1_3420">
<rect width="216" height="40" fill="white"/>
</clipPath>
</defs>
</svg>
